<svg height="256" width="256" xmlns="http://www.w3.org/2000/svg"><linearGradient id="a" gradientUnits="userSpaceOnUse" x1="127.999" x2="127.999" y1="11.167" y2="138.796"><stop offset="0" stop-color="#fff" stop-opacity=".85"/><stop offset=".66" stop-color="#fff" stop-opacity="0"/></linearGradient><linearGradient id="b" gradientUnits="userSpaceOnUse" x1="127.999" x2="127.999" y1="138.001" y2="245.512"><stop offset="0" stop-opacity=".15"/><stop offset=".663" stop-opacity="0"/></linearGradient><path d="M214.779 1.08H39.08c-20.992 0-38.01 17.163-38.01 38.334v177.174c0 21.171 17.018 38.333 38.01 38.333h175.696c20.998 0 38.01-17.163 40.152-37.613V40.136C252.788 18.244 235.77 1.08 214.78 1.08z" fill="#244db3"/><path d="M209.018 10.505H44.983c-19.599 0-35.487 15.889-35.487 35.487v69.409c36.33 14.751 76.046 22.896 117.671 22.896 42.263 0 82.558-8.395 119.336-23.576V46.66c-1.999-20.266-17.888-36.155-37.485-36.155z" fill="url(#a)" transform="matrix(1.0711 0 0 1.08023 -9.1 -10.267)"/><path d="M246.503 114.721V46.66c-1.999-20.266-17.888-36.155-37.485-36.155H44.982c-19.599 0-35.486 15.889-35.486 35.487v69.409" fill="none" stroke="#244db3" stroke-miterlimit="10" stroke-width="2" transform="matrix(1.0711 0 0 1.08023 -9.1 -10.267)"/><g fill="#fff"><path d="M32.205 56.67c64.248-.009 128.493-.009 192.741 0-7.199 7.08-14.23 14.314-21.462 21.36-8.81 8.606-17.398 17.424-26.204 26.038-5.006 5.018-10.167 9.89-15.05 15.027-8.75 8.674-17.568 17.288-26.257 26.018-4.418 3.85-12.012 3.706-16.004-.69C90.676 115.209 61.495 85.89 32.205 56.67zM30.021 192.598c.02-42.44.022-84.876-.001-127.314 21.15 21.01 39.514 40.474 60.595 61.55C70.21 149.108 50.1 170.7 30.021 192.598zM225.979 193.098c-.02-42.437-.021-84.875 0-127.313-21.15 21.011-39.514 40.474-60.597 61.55 20.407 22.275 40.517 43.867 60.596 65.763z"/><path d="m32.952 199.333 62.802-67.478c4.491 4.326 13.226 12.268 17.776 16.536 10.686 9.598 20.973 9.456 31.391-.468 4.147-4.103 11.639-11.554 15.793-15.65l61.046 67.06H32.952z"/></g><path d="M9.496 115.401v94.605c0 19.6 15.888 35.486 35.487 35.486h164.033c19.604 0 35.488-15.889 37.488-34.819v-95.952c-36.779 15.181-77.074 23.576-119.337 23.576-41.625.001-81.342-8.145-117.671-22.896z" fill="url(#b)" transform="matrix(1.0711 0 0 1.08023 -9.1 -10.267)"/><path d="M9.496 115.401v94.605c0 19.6 15.888 35.486 35.486 35.486h164.034c19.604 0 35.487-15.889 37.487-34.819v-95.952" fill="none" stroke="#1d3d8f" stroke-miterlimit="10" stroke-width="2" transform="matrix(1.0711 0 0 1.08023 -9.1 -10.267)"/></svg>